<svg width="160" height="160" viewBox="0 0 160 160" fill="none" xmlns="http://www.w3.org/2000/svg">
<mask id="mask0" mask-type="alpha" maskUnits="userSpaceOnUse" x="0" y="0" width="160" height="160">
<circle cx="80" cy="80" r="80" fill="#405064"/>
</mask>
<g mask="url(#mask0)">
<circle cx="80" cy="80" r="80" fill="#405064"/>
<path fill-rule="evenodd" clip-rule="evenodd" d="M108 60C108 44.536 95.464 32 80 32C64.536 32 52 44.536 52 60C52 75.464 64.536 88 80 88C51.298 88 28 111.303 28 139.976V160.672C28 162.881 29.7909 164.672 32 164.672C34.2091 164.672 36 162.881 36 160.672V139.976C36 115.721 55.7167 96 80 96C104.304 96 124 115.697 124 140V160.648C124 162.858 125.791 164.648 128 164.648C130.209 164.648 132 162.858 132 160.648V140C132 111.279 108.723 88 80 88C95.464 88 108 75.464 108 60ZM80 40C68.9543 40 60 48.9543 60 60C60 71.0457 68.9543 80 80 80C91.0457 80 100 71.0457 100 60C100 48.9543 91.0457 40 80 40Z" fill="white"/>
</g>
</svg>
