<svg xmlns="http://www.w3.org/2000/svg" width="47" height="68" viewBox="0 0 47 68">
    <g fill="none" fill-rule="evenodd" stroke-linecap="round" stroke-linejoin="round" stroke-width="2.667">
        <path fill="#E46565" stroke="#E46565" d="M36.56 37.111V66l-12.8-12.897L10.96 66V37.111c.734.134 1.407.328 1.905.69 1.656 1.207 2.117 4.888 4.045 5.658.04.018.082.034.124.047 1.961.637 4.553-2.165 6.726-2.165s4.765 2.802 6.726 2.163c.042-.013.084-.029.124-.047 1.928-.769 2.39-4.45 4.045-5.655.498-.363 1.17-.557 1.905-.691z"/>
        <path fill="#FEB557" stroke="#FEB557" d="M45.52 22.8c0 2.173-3.49 3.77-4.126 5.731-.66 2.034 1.202 5.37-.03 7.064-.609.836-1.82 1.085-3.097 1.267-1.333.189-2.74.305-3.612.94-1.656 1.206-2.117 4.886-4.045 5.655-.04.018-.082.034-.124.047-1.961.639-4.553-2.163-6.726-2.163s-4.765 2.802-6.726 2.165a1.164 1.164 0 0 1-.124-.047c-1.928-.77-2.39-4.451-4.045-5.657-.872-.635-2.279-.751-3.612-.94-1.278-.182-2.488-.43-3.098-1.267-1.231-1.693.63-5.03-.029-7.064C5.49 26.57 2 24.973 2 22.8s3.49-3.77 4.126-5.731c.66-2.033-1.202-5.37.03-7.064 1.242-1.709 5-.962 6.71-2.207 1.69-1.231 2.135-5.043 4.168-5.704 1.961-.637 4.553 2.165 6.726 2.165s4.764-2.802 6.726-2.165c2.033.661 2.477 4.473 4.168 5.704 1.709 1.245 5.468.498 6.71 2.207 1.232 1.693-.63 5.03.03 7.064.636 1.962 4.126 3.558 4.126 5.731z"/>
        <path fill="#FEC957" stroke="#FEC957" d="M23.44 35.92c7.246 0 13.12-5.874 13.12-13.12 0-7.246-5.874-13.12-13.12-13.12-7.246 0-13.12 5.874-13.12 13.12 0 7.246 5.874 13.12 13.12 13.12z"/>
    </g>
</svg>
