<svg xmlns="http://www.w3.org/2000/svg" width="44" height="49" viewBox="0 0 44 49">
<desc>Small pink icon of an open book</desc>
    <defs>
        <linearGradient id="vm4sz6zcba" x1="96.995%" x2="3.005%" y1="100%" y2="0%">
            <stop offset="0%" stop-color="#E21270"/>
            <stop offset="100%" stop-color="#E7180D"/>
        </linearGradient>
    </defs>
    <g fill="none" fill-rule="evenodd">
        <g>
            <g>
                <g>
                    <g>
                        <g>
                            <g>
                                <path fill="url(#vm4sz6zcba)" d="M17.321 8.182c.975.514 1.803 3.406 1.976 2.833.532-1.755 1.422-2.7 2.668-2.833 6.096-.784 9.239-.421 9.428 1.087.656 4.593.656 14.157 0 21.799-.104 1.209-7.578-.16-8.995.42-1.926.789-1.926.421-2.989 3.03-.312.767-1.33-2.583-2.766-3.03-1.436-.447-10.474 1.2-10.674-1.041-.503-5.63-.65-19.845.683-21.751 1.333-1.906 9.694-1.028 10.67-.514z" opacity=".5" transform="translate(-746 -1614) translate(0 480) translate(135 205) translate(0 240) translate(609 505) rotate(-10 1095.888 74.346)"/>
                                <path stroke="#081D48" stroke-linecap="round" stroke-width="1.6" d="M15.232 10.153c.975.514 1.803 3.406 1.976 2.833.532-1.755 1.422-2.699 2.668-2.833 6.096-.783 9.239-.421 9.428 1.087.656 4.594.656 14.157 0 21.799-.104 1.209-7.578-.16-8.995.42-1.926.789-1.926.421-2.989 3.03-.312.767-1.33-2.583-2.766-3.03-1.436-.447-10.474 1.2-10.674-1.041-.503-5.63-.65-19.845.683-21.751 1.333-1.906 9.694-1.027 10.67-.514z" transform="translate(-746 -1614) translate(0 480) translate(135 205) translate(0 240) translate(609 505) rotate(-10 1095.888 74.346)"/>
                                <path stroke="#081D48" stroke-linecap="round" stroke-width="1.696" d="M17.162 12.681c.11 7.42-.119 14.838-.008 22.257" transform="translate(-746 -1614) translate(0 480) translate(135 205) translate(0 240) translate(609 505) rotate(-10 1095.888 74.346)"/>
                                <path stroke="#081D48" stroke-linecap="round" stroke-width="1.6" d="M3.192 12.63c-3.383.484-3.531.457-2.858 12.568.092 1.671-.088 9.846 1.548 10.714 1.636.87 8.07 0 10.935.342 1.532.183 2.704 4.463 4.34 4.463 1.638 0 2.613-3.652 4.18-4.08 6.534-.614 10 1.002 11.062-.92 1.063-1.92.8-10.1.9-15.15.056-2.793.289-7.476-.435-8.36-.724-.884-1.89-.41-2.835-.615M13.472 5.457c-3.005-2.404-2.083-2.404-6.01-3.421M17.823 5.098c-.471-2.21-.339-2.824.61-5.098M22.048 5.421c2.015-1.482 2.363-1.879 5.048-3.047" transform="translate(-746 -1614) translate(0 480) translate(135 205) translate(0 240) translate(609 505) rotate(-10 1095.888 74.346)"/>
                            </g>
                        </g>
                    </g>
                </g>
            </g>
        </g>
    </g>
</svg>
