<svg xmlns="http://www.w3.org/2000/svg" width="31" height="43" viewBox="0 0 31 43">
    <defs>
    <desc>Small pink certificate icon</desc>
        <linearGradient id="gynnnlzlza" x1="100%" x2="0%" y1="95.686%" y2="4.314%">
            <stop offset="0%" stop-color="#E21270"/>
            <stop offset="100%" stop-color="#E7180D"/>
        </linearGradient>
        <linearGradient id="ykpjvmcvob" x1="89.263%" x2="10.737%" y1="100%" y2="0%">
            <stop offset="0%" stop-color="#E21270"/>
            <stop offset="100%" stop-color="#E7180D"/>
        </linearGradient>
    </defs>
    <g fill="none" fill-rule="evenodd">
        <g>
            <g>
                <g>
                    <g>
                        <g>
                            <g>
                                <path fill="url(#gynnnlzlza)" d="M19.626.9c.671.217 1.067.98 1.446 1.769l.206.43c.277.567.568 1.098.974 1.394 1.077.784 3.445.314 4.228 1.39.775 1.067-.397 3.17.018 4.45.401 1.236 2.6 2.242 2.6 3.611 0 1.37-2.199 2.375-2.6 3.61-.415 1.282.758 3.384-.018 4.45-.384.528-1.147.684-1.952.799-.84.119-1.726.192-2.276.592-1.043.76-1.333 3.079-2.547 3.563-.026.011-.052.022-.079.03-1.236.402-2.868-1.363-4.237-1.363-1.37 0-3.002 1.765-4.238 1.364-.026-.008-.053-.019-.078-.03-1.214-.485-1.505-2.804-2.548-3.564-.55-.4-1.436-.473-2.275-.592-.806-.115-1.568-.271-1.952-.798-.776-1.067.397-3.17-.018-4.45-.402-1.236-2.6-2.242-2.6-3.611 0-1.37 2.199-2.375 2.6-3.61.415-1.282-.758-3.384.018-4.45.783-1.077 3.15-.607 4.227-1.391.406-.296.698-.827.975-1.395l.206-.43c.378-.788.774-1.55 1.445-1.769 1.236-.4 2.869 1.364 4.238 1.364 1.369 0 3.001-1.765 4.237-1.364zm-4.439 4.778c-4.565 0-8.265 3.701-8.265 8.266 0 4.565 3.7 8.266 8.265 8.266s8.266-3.701 8.266-8.266c0-4.565-3.7-8.266-8.266-8.266z" opacity=".5" transform="translate(-753 -1438) translate(0 480) translate(135 205) translate(0 240) translate(609 505) translate(10 9)"/>
                                <path fill="url(#ykpjvmcvob)" d="M23.453 23.8V42l-8.064-8.125L7.325 42V23.8c.462.085.886.206 1.2.435 1.043.76 1.334 3.079 2.548 3.564.025.011.052.022.078.03 1.236.4 2.869-1.364 4.238-1.364 1.369 0 3.001 1.765 4.237 1.363.027-.008.053-.019.079-.03 1.214-.484 1.504-2.803 2.547-3.563.314-.229.738-.35 1.2-.435z" opacity=".5" transform="translate(-753 -1438) translate(0 480) translate(135 205) translate(0 240) translate(609 505) translate(10 9)"/>
                                <path stroke="#081D48" stroke-linecap="round" stroke-linejoin="round" stroke-width="1.68" d="M27.418 13.104c0 1.37-2.199 2.375-2.6 3.61-.415 1.282.758 3.384-.018 4.45-.384.528-1.147.684-1.952.799-.84.119-1.726.192-2.276.592-1.043.76-1.333 3.079-2.547 3.563-.026.011-.052.022-.079.03-1.236.402-2.868-1.363-4.237-1.363-1.37 0-3.002 1.765-4.238 1.364-.026-.008-.053-.019-.078-.03-1.214-.485-1.505-2.804-2.548-3.564-.55-.4-1.436-.473-2.275-.592-.806-.115-1.568-.271-1.952-.798-.776-1.067.397-3.17-.018-4.45-.402-1.236-2.6-2.242-2.6-3.611 0-1.37 2.199-2.375 2.6-3.61.415-1.282-.758-3.384.018-4.45.783-1.077 3.15-.607 4.227-1.391C7.91 2.877 8.191.476 9.471.059c1.236-.4 2.869 1.364 4.238 1.364 1.369 0 3.001-1.765 4.237-1.364 1.28.417 1.561 2.818 2.626 3.594 1.077.784 3.445.314 4.228 1.39.775 1.067-.397 3.17.018 4.45.401 1.236 2.6 2.242 2.6 3.611h0z" transform="translate(-753 -1438) translate(0 480) translate(135 205) translate(0 240) translate(609 505) translate(10 9)"/>
                                <path stroke="#081D48" stroke-linecap="round" stroke-linejoin="round" stroke-width="1.68" d="M13.507 21.37c4.565 0 8.266-3.701 8.266-8.266 0-4.565-3.7-8.266-8.266-8.266-4.565 0-8.265 3.701-8.265 8.266 0 4.565 3.7 8.266 8.265 8.266h0zM21.773 22.12v18.2l-8.064-8.125-8.064 8.125v-18.2c.462.085.886.206 1.2.435 1.043.76 1.334 3.079 2.548 3.564.025.011.052.022.078.03 1.236.4 2.869-1.364 4.238-1.364 1.369 0 3.001 1.765 4.237 1.363.027-.008.053-.019.079-.03 1.214-.484 1.504-2.803 2.547-3.563.314-.229.738-.35 1.2-.435h0z" transform="translate(-753 -1438) translate(0 480) translate(135 205) translate(0 240) translate(609 505) translate(10 9)"/>
                            </g>
                        </g>
                    </g>
                </g>
            </g>
        </g>
    </g>
</svg>
