<svg xmlns="http://www.w3.org/2000/svg" width="45" height="44" viewBox="0 0 45 44">
<desc>Small pink raised hands icon</desc>
    <defs>
        <linearGradient id="73bof8cnja" x1="63.66%" x2="36.34%" y1="100%" y2="0%">
            <stop offset="0%" stop-color="#E21270"/>
            <stop offset="100%" stop-color="#E7180D"/>
        </linearGradient>
    </defs>
    <g fill="none" fill-rule="evenodd">
        <g>
            <g>
                <g>
                    <g>
                        <g>
                            <g>
                                <path fill="url(#73bof8cnja)" d="M23.265 43.704c-3.127-3.357-12.385-17.72-11.055-23.067.58-2.338.58-2.338 1.537-2.988.924-.628 1.262 1.012 1.393 1.716.501 2.688.944 4.857 1.151 5.415.207.558.967 2.169.977 2.015.451-7.266-.398-4.88-.662-12.703-.063-1.852-.338-2.63 0-4.482.172-.947.84-.715 1.27-.45.522.322 1.093 1.758 1.714 4.308.375 2.175.653 3.696.833 4.564.055.268.039-.655 0-.935-.22-1.586-.385-2.71-.61-4.296-.143-1.004-.151-2.18-.223-3.191-.038-.53-.251-1.033 0-1.501.132-.246.56-.558.833-.503 2.079.423 2.518 8.064 2.586 8.505.13.844.394 2.67.535 2.55.141-.121-.101-2.147-.279-2.9-.302-1.283-1.257-5.467-.535-6.601.598-.939 1.52.047 1.76.45.402.667.822 1.334 1.087 2.066.281.776.445 1.596.538 2.416.185 1.64.186 3.294.293 4.94.066 1.022-.27-2.046-.172-3.065.132-1.367.444-2.72.855-4.03.06-.189.315-.254.505-.304.211-.055.485-.138.654 0 1.113.906.767 3.154.657 4.478-.167 2.016.3 7.145 0 11.727-.224 3.412-1.26 4.85-.421 8.35.306 1.277 2.278 5.91 2.465 6.363" opacity=".5" transform="translate(-745 -1527) translate(0 480) translate(135 205) translate(0 240) translate(609 505) translate(2 97)"/>
                                <path stroke="#081D48" stroke-linecap="round" stroke-width="1.6" d="M21.665 42.424C18.538 39.067 9.28 24.704 10.61 19.357c.58-2.338.58-2.338 1.537-2.988.924-.628 1.262 1.012 1.393 1.716.501 2.688.944 4.857 1.151 5.415.207.558.967 2.169.977 2.015.451-7.266-.398-4.88-.662-12.703-.063-1.852-.338-2.63 0-4.482.172-.947.84-.715 1.27-.45.522.322 1.093 1.758 1.714 4.308.375 2.175.653 3.696.833 4.564.055.268.039-.655 0-.935-.22-1.586-.385-2.71-.61-4.296-.143-1.004-.151-2.18-.223-3.191-.038-.53-.251-1.033 0-1.501.132-.246.56-.558.833-.503 2.079.423 2.518 8.064 2.586 8.505.13.844.394 2.67.535 2.55.141-.121-.101-2.147-.279-2.9-.302-1.283-1.257-5.467-.535-6.601.598-.939 1.52.047 1.76.45.402.667.822 1.334 1.087 2.066.281.776.445 1.596.538 2.416.185 1.64.186 3.294.293 4.94.066 1.022-.27-2.046-.172-3.065.132-1.367.444-2.72.855-4.03.06-.189.315-.254.505-.304.211-.055.485-.138.654 0 1.113.906.767 3.154.657 4.478-.167 2.016.3 7.145 0 11.727-.224 3.412-1.26 4.85-.421 8.35.306 1.277 2.278 5.91 2.465 6.363M37.216 35.655C35.254 33.542 31.6 24.948 31.6 21.172c0-1.333.03-1.565.63-1.974.58-.396.98.98 1.063 1.423.315 1.692.86 2.885.99 3.236.13.352.607 1.365.613 1.268.284-4.572-.25-3.07-.415-7.993-.04-1.166-.672-1.655-.46-2.821.108-.596.988-.45 1.257-.283.328.203.686 1.12 1.075 2.75.236 1.778.41 2.94.523 3.486.035.168-.172-1.236-.196-1.413-.138-.997-.046-1.534-.187-2.532-.09-.632-.095-1.371-.14-2.008-.023-.333-.157-.65 0-.944.083-.155.55-.358.721-.323 1.305.266 1.382 5.08 1.424 5.358.082.531.073 2.295.161 2.219.089-.076.112-1.965 0-2.44-.19-.806-.614-3.44-.16-4.153.374-.59 1.027.03 1.18.283.25.42.265.84.431 1.3.176.488.28 1.005.337 1.52.116 1.032.01 2.283.077 3.319.041.642-.062-1.497 0-2.138.082-.86.278-1.712.536-2.537.037-.118.198-.16.317-.19.132-.036.304-.088.41 0 .698.57.748 3.193.679 4.026-.105 1.269.188 3.569 0 6.452-.14 2.147-.456 4.013-.456 6.142 0 .897.072 2.849.19 3.134M2.736 11.76c-2.098 1.28-2.744 3.455-1.653 6.91M5.915 22.258C4.068 17.796 3.39 15.52 6.926 11.76M26.324 2.76c3.356 1.414 4.963 3.56 4.963 8.166M29.68.88c2.242 1.038 3.207 1.88 3.882 4.352" transform="translate(-745 -1527) translate(0 480) translate(135 205) translate(0 240) translate(609 505) translate(2 97)"/>
                            </g>
                        </g>
                    </g>
                </g>
            </g>
        </g>
    </g>
</svg>
