<svg xmlns="http://www.w3.org/2000/svg" width="36" height="51" viewBox="0 0 36 51">
<title>Certificate icon</title>
    <g fill="none" fill-rule="evenodd">
        <path fill="#00B3BF" d="M23.365 1.07c1.524.496 1.858 3.355 3.126 4.279 1.281.933 4.1.373 5.032 1.655.924 1.27-.472 3.773.022 5.297.478 1.472 3.095 2.669 3.095 4.299 0 1.63-2.617 2.827-3.095 4.299-.494 1.524.902 4.027-.022 5.297-.456.628-1.364.814-2.323.95-1 .142-2.055.229-2.71.705-1.24.905-1.586 3.665-3.032 4.242-.03.013-.062.026-.093.035-1.472.479-3.415-1.623-5.045-1.623s-3.573 2.102-5.045 1.624c-.031-.01-.063-.021-.093-.035-1.446-.578-1.791-3.338-3.033-4.243-.654-.476-1.71-.563-2.709-.705-.959-.136-1.866-.322-2.323-.95-.924-1.27.472-3.773-.022-5.297C4.617 19.427 2 18.229 2 16.6c0-1.63 2.617-2.827 3.095-4.299.494-1.524-.902-4.027.022-5.297.932-1.282 3.75-.722 5.032-1.655 1.268-.924 1.602-3.783 3.126-4.278 1.471-.478 3.415 1.624 5.045 1.624S21.893.593 23.365 1.07zM18.08 6.76c-5.434 0-9.84 4.406-9.84 9.84s4.406 9.84 9.84 9.84 9.84-4.406 9.84-9.84-4.406-9.84-9.84-9.84z" opacity=".5" transform="translate(1 1)"/>
        <path fill="#00B3BF" d="M27.92 28.333V50l-9.6-9.673L8.72 50V28.333c.55.101 1.055.246 1.43.518 1.24.905 1.586 3.665 3.032 4.243.03.014.062.026.093.035 1.472.478 3.415-1.624 5.045-1.624s3.573 2.102 5.045 1.623c.031-.01.063-.022.093-.035 1.446-.577 1.791-3.337 3.033-4.242.374-.272.878-.417 1.429-.518z" opacity=".5" transform="translate(1 1)"/>
        <path stroke="#081D48" stroke-linecap="round" stroke-linejoin="round" stroke-width="2" d="M32.64 15.6c0 1.63-2.617 2.827-3.095 4.299-.494 1.524.902 4.027-.022 5.297-.456.628-1.364.814-2.323.95-1 .142-2.055.229-2.71.705-1.24.905-1.586 3.665-3.032 4.242-.03.013-.062.026-.093.035-1.472.479-3.415-1.623-5.045-1.623s-3.573 2.102-5.045 1.624c-.031-.01-.063-.021-.093-.035-1.446-.578-1.791-3.338-3.033-4.243-.654-.476-1.71-.563-2.709-.705-.959-.136-1.866-.322-2.323-.95-.924-1.27.472-3.773-.022-5.297C2.617 18.427 0 17.229 0 15.6c0-1.63 2.617-2.827 3.095-4.299.494-1.524-.902-4.027.022-5.297.932-1.282 3.75-.722 5.032-1.655C9.417 3.425 9.751.566 11.275.07c1.471-.478 3.415 1.624 5.045 1.624S19.893-.407 21.365.07c1.524.495 1.858 3.354 3.126 4.278 1.281.933 4.1.373 5.032 1.655.924 1.27-.472 3.773.022 5.297.478 1.472 3.095 2.669 3.095 4.299h0z" transform="translate(1 1)"/>
        <path stroke="#081D48" stroke-linecap="round" stroke-linejoin="round" stroke-width="2" d="M16.08 25.44c5.434 0 9.84-4.406 9.84-9.84s-4.406-9.84-9.84-9.84-9.84 4.406-9.84 9.84 4.406 9.84 9.84 9.84h0zM25.92 26.333V48l-9.6-9.673L6.72 48V26.333c.55.101 1.055.246 1.43.518 1.24.905 1.586 3.665 3.032 4.243.03.014.062.026.093.035 1.472.478 3.415-1.624 5.045-1.624s3.573 2.102 5.045 1.623c.031-.01.063-.022.093-.035 1.446-.577 1.791-3.337 3.033-4.242.374-.272.878-.417 1.429-.518h0z" transform="translate(1 1)"/>
    </g>
</svg>
