<svg xmlns="http://www.w3.org/2000/svg" width="24" height="20" viewBox="0 0 24 20">
    <defs>
        <linearGradient id="k7aejtklpa" x1="0%" x2="100%" y1="82.103%" y2="17.897%">
            <stop offset="0%" stop-color="#6B3ECD"/>
            <stop offset="100%" stop-color="#00B3BF"/>
        </linearGradient>
    </defs>
    <g fill="none" fill-rule="evenodd">
        <g fill="url(#k7aejtklpa)" transform="translate(-920 -753)">
            <g>
                <g>
                    <g>
                        <g>
                            <g>
                                <path d="M7.573 14.791L21.346.466c.598-.622 1.586-.624 2.195.01.613.637.61 1.658.003 2.29L8.169 18.755c-.611.636-1.593.63-2.202-.002l-.012-.014-.013-.013-5.486-5.705c-.609-.634-.608-1.66 0-2.292.614-.638 1.596-.634 2.205-.001l4.409 4.586.503-.524z" transform="translate(0 80) translate(240 504) translate(680) translate(0 160) translate(0 9)"/>
                            </g>
                        </g>
                    </g>
                </g>
            </g>
        </g>
    </g>
</svg>
