<?xml version="1.0" encoding="UTF-8"?>
<svg width="14px" height="14px" viewBox="0 0 14 14" version="1.1" xmlns="http://www.w3.org/2000/svg" xmlns:xlink="http://www.w3.org/1999/xlink">
    <title>Finish this lesson checkmark</title>
    <desc>A check mark within a circle, indicating whether or not this lesson has been completed. This can be clicked to mark the lesson as complete.</desc>
    <defs>
        <linearGradient x1="0%" y1="0%" x2="100%" y2="100%" id="linearGradient-1">
            <stop stop-color="#6B3ECD" offset="0%"></stop>
            <stop stop-color="#00B3BF" offset="100%"></stop>
        </linearGradient>
        <linearGradient x1="0%" y1="17.7997794%" x2="100%" y2="82.2002206%" id="linearGradient-2">
            <stop stop-color="#6B3ECD" offset="0%"></stop>
            <stop stop-color="#00B3BF" offset="100%"></stop>
        </linearGradient>
    </defs>
    <g id="Digital-Transformation-MC---Desktop" stroke="none" stroke-width="1" fill="none" fill-rule="evenodd">
        <g id="MC---DT---1.3---320px" transform="translate(-39.000000, -892.000000)">
            <g id="What-you-will-learn" transform="translate(20.000000, 537.000000)">
                <g id="Group-6" transform="translate(0.000000, 317.000000)">
                    <g id="check-o-line-gradient" transform="translate(20.000000, 39.000000)">
                        <path d="M0,6 C0,2.68628571 2.68628571,0 6,0 C9.31371429,0 12,2.68628571 12,6 C12,9.31371429 9.31371429,12 6,12 C2.68628571,12 0,9.31371429 0,6" id="Fill-232" stroke="url(#linearGradient-1)" stroke-width="0.9"></path>
                        <path d="M4.94347179,7.30172431 L8.47809919,3.61982077 C8.63170004,3.45981988 8.88527042,3.45950281 9.04148014,3.62222126 C9.19877892,3.78607416 9.19801268,4.04842218 9.04220118,4.21072582 L5.09642907,8.3209051 C4.93963816,8.48422897 4.68767441,8.48287246 4.5314647,8.32015401 C4.53035684,8.31899999 4.52925683,8.31784107 4.52816467,8.31667733 C4.5270512,8.31554354 4.52594245,8.31440167 4.5248385,8.31325172 L3.11711009,6.84686797 C2.96083827,6.68408481 2.96104142,6.42047769 3.11725113,6.25775923 C3.27454992,6.09390633 3.5266637,6.094975 3.68279552,6.25761231 L4.81430741,7.43627053 L4.94347179,7.30172431 Z" id="Rectangle-348" fill="url(#linearGradient-2)"></path>
                    </g>
                </g>
            </g>
        </g>
    </g>
</svg>
