<svg width="62" height="62" fill="none">
  <path fill="#fff" fill-rule="evenodd" d="M0 0v31.285h14.377v9.832H5.324v20.772h21.001V41.117h-9.051v-9.832h12.414l6.91 6.823-6.4 6.319L45.06 59.102l14.864-14.675L45.06 29.751l-6.4 6.319-7.012-6.923V17.091h9.241v8.937h21V5.257h-21v8.937h-9.241V0H0zm2.898 2.897h25.853v25.491h.001H2.898V2.897zm40.888 20.235h15.206V8.154H43.786v14.978zm-9.464 21.295l10.737-10.604L55.8 44.427 45.059 55.031 34.322 44.427zM8.221 58.992h15.206V44.014H8.221v14.978z" clip-rule="evenodd"/>
</svg>
