<svg xmlns="http://www.w3.org/2000/svg" width="32" height="32" viewBox="0 0 32 32">
    <title>Headphones icon</title>
    <desc>Small blue icon depicting headphones</desc>
    <g fill="none">
        <path fill="#00B3BF" d="M23 22.009v7.982c0 1.11.887 2.009 1.998 2.009h4.004C30.105 32 31 31.098 31 29.991V22.01c0-1.11-.887-2.009-1.998-2.009h-4.004C23.895 20 23 20.902 23 22.009zm-16 0v7.982C7 31.101 7.887 32 8.998 32h4.004C14.105 32 15 31.098 15 29.991V22.01c0-1.11-.887-2.009-1.998-2.009H8.998C7.895 20 7 20.902 7 22.009z" opacity=".5"/>
        <path fill="#081D48" d="M2 16.007C2 8.27 8.267 2 16 2s14 6.267 14 14v8c0 .552.448 1 1 1s1-.448 1-1v-8c0-8.838-7.163-16-16-16C7.162 0 0 7.166 0 16.007v7.963c0 .552.448 1 1 1s1-.448 1-1v-7.963z"/>
        <path fill="#081D48" d="M20 20.009v7.982c0 1.11.887 2.009 1.998 2.009h4.004C27.105 30 28 29.098 28 27.991V20.01c0-1.11-.887-2.009-1.998-2.009h-4.004C20.895 18 20 18.902 20 20.009zM26.002 20L26 27.991c0 .006-4.002.009-4.002.009L22 20.009c0-.006 4.002-.009 4.002-.009zM4 20.009v7.982C4 29.101 4.887 30 5.998 30h4.004C11.105 30 12 29.098 12 27.991V20.01c0-1.11-.887-2.009-1.998-2.009H5.998C4.895 18 4 18.902 4 20.009zM10.002 20L10 27.991c0 .006-4.002.009-4.002.009L6 20.009c0-.006 4.002-.009 4.002-.009z"/>
    </g>
</svg>
