<svg width="49" height="70" fill="none">
  <mask id="a" width="49" height="70" x="0" y="0" maskUnits="userSpaceOnUse">
    <path fill="#fff" fill-rule="evenodd" d="M0 0h48.145v69.574H0V0z" clip-rule="evenodd"/>
  </mask>
  <g mask="url(#a)">
    <path fill="#fff" fill-rule="evenodd" d="M39.34 66.136a5.375 5.375 0 0 1-5.375-5.376 5.375 5.375 0 1 1 5.375 5.376zM8.93 14.267a5.375 5.375 0 1 1 0-10.75 5.375 5.375 0 0 1 0 10.75zm30.41 14.912a5.375 5.375 0 1 1 .001 10.75 5.375 5.375 0 0 1-.001-10.75zm0 22.769a8.827 8.827 0 0 0-8.115 5.367l-7.09-7.047v-13.99h6.513a8.822 8.822 0 1 0 0-3.447h-6.513v-9.966a1.724 1.724 0 0 0-.508-1.215l-7.599-7.599a8.855 8.855 0 0 0-1.976-12.367 8.857 8.857 0 1 0-.547 14.711l7.185 7.184v27.395c.002.456.184.893.507 1.215l9.356 9.346a8.814 8.814 0 0 0 17.558-1.55 8.813 8.813 0 0 0-8.771-8.037z" clip-rule="evenodd"/>
  </g>
</svg>
