<svg width="91" height="35" fill="none">
  <path fill="#fff" fill-rule="evenodd" d="M14.676 2.5a5.55 5.55 0 1 1-5.56 5.55 5.57 5.57 0 0 1 5.56-5.55zm0 13.1a7.551 7.551 0 1 0-7.56-7.55 7.56 7.56 0 0 0 7.56 7.55z" clip-rule="evenodd"/>
  <path fill="#fff" d="M14.676 2.5V2h-.001v.5zm-.02 11.1l-.001.5v-.5zm-5.54-5.55l-.5-.002v.002h.5zm5.56 7.55v.5-.5zM14.656.5V0v.5zm-7.54 7.55h-.5.5zM14.675 3a5.05 5.05 0 0 1 5.04 5.059l1 .002A6.05 6.05 0 0 0 14.678 2l-.002 1zm5.04 5.059a5.05 5.05 0 0 1-5.058 5.04l-.002 1a6.05 6.05 0 0 0 6.06-6.038l-1-.002zm-5.058 5.04a5.05 5.05 0 0 1-5.041-5.05h-1a6.05 6.05 0 0 0 6.039 6.05l.002-1zM9.616 8.053A5.07 5.07 0 0 1 14.676 3l-.001-1a6.07 6.07 0 0 0-6.06 6.048l1 .004zm5.06 8.048a8.049 8.049 0 0 0 8.04-8.06h-1a7.049 7.049 0 0 1-7.04 7.06v1zm8.04-8.06A8.051 8.051 0 0 0 14.656 0v1a7.05 7.05 0 0 1 7.06 7.04h1zM14.656 0a8.05 8.05 0 0 0-8.04 8.05h1A7.05 7.05 0 0 1 14.656 1V0zm-8.04 8.05a8.06 8.06 0 0 0 8.06 8.05v-1a7.06 7.06 0 0 1-7.06-7.05h-1z"/>
  <path fill="#fff" fill-rule="evenodd" d="M26.366 29.59a2.67 2.67 0 0 1-2.25 1.18H5.236a2.72 2.72 0 0 1-2.54-3.72c1.46-3.8 4.73-8.34 12-8.34s10.52 4.54 12 8.34c.323.849.2 1.803-.33 2.54zm-11.69-12.88c-8.39 0-12.16 5.24-13.85 9.62a4.718 4.718 0 0 0 4.41 6.44h18.88a4.73 4.73 0 0 0 4.41-6.44c-1.68-4.38-5.41-9.62-13.85-9.62z" clip-rule="evenodd"/>
  <path fill="#fff" d="M26.366 29.59l-.406-.292-.004.007-.005.006.415.279zm-2.25 1.18l.007-.5h-.007v.5zm-18.88 0v-.5h-.003l.002.5zm-2.73-2.71l-.5.002.5-.001zm.19-1.01l.464.183.002-.004-.467-.18zm24 0l.466-.178v-.003l-.467.18zm-25.87-.72l.466.182v-.002l-.466-.18zm2.675 6.115l.183-.466-.183.466zm1.734.325v-.5h-.001l.001.5zm23.29-6.44l-.466.179v.002l.466-.181zm-2.574 2.98a2.17 2.17 0 0 1-1.828.96l-.013 1a3.17 3.17 0 0 0 2.671-1.401l-.83-.558zm-1.835.96H5.236v1h18.88v-1zm-18.883 0a2.22 2.22 0 0 1-2.228-2.211l-1 .004a3.22 3.22 0 0 0 3.232 3.207l-.004-1zm-2.228-2.21c0-.284.052-.564.155-.827l-.93-.367c-.15.382-.226.788-.225 1.196l1-.003zm.157-.83c.711-1.85 1.853-3.854 3.678-5.393 1.815-1.531 4.335-2.627 7.855-2.627v-1c-3.748 0-6.498 1.174-8.5 2.863-1.993 1.68-3.217 3.847-3.966 5.797l.933.36zm11.533-8.02c3.522 0 6.037 1.096 7.85 2.627 1.822 1.539 2.964 3.543 3.684 5.394l.932-.363c-.758-1.948-1.98-4.114-3.971-5.795-2-1.689-4.745-2.863-8.495-2.863v1zm11.533 8.018c.264.692.163 1.47-.268 2.07l.813.583a3.203 3.203 0 0 0 .39-3.01l-.935.357zM14.676 16.21c-4.309 0-7.464 1.349-9.76 3.285C2.63 21.424 1.224 23.91.36 26.15l.933.36c.825-2.14 2.15-4.464 4.268-6.25 2.11-1.78 5.034-3.05 9.115-3.05v-1zM.361 26.148a5.218 5.218 0 0 0 2.958 6.762l.364-.93a4.218 4.218 0 0 1-2.391-5.468l-.931-.364zm2.958 6.762c.611.24 1.262.362 1.918.36l-.003-1a4.202 4.202 0 0 1-1.55-.29l-.365.93zm1.916.36h18.881v-1H5.236v1zm18.881 0a5.23 5.23 0 0 0 5.23-5.23h-1a4.23 4.23 0 0 1-4.23 4.23v1zm5.23-5.23a5.22 5.22 0 0 0-.355-1.891l-.932.362a4.22 4.22 0 0 1 .286 1.529h1zm-.354-1.89c-.859-2.238-2.251-4.725-4.533-6.654-2.292-1.938-5.45-3.286-9.783-3.286v1c4.107 0 7.034 1.271 9.137 3.05 2.112 1.785 3.424 4.108 4.245 6.249l.934-.358z"/>
  <path fill="#fff" fill-rule="evenodd" d="M75.556 2.5a5.55 5.55 0 1 1-5.56 5.55 5.56 5.56 0 0 1 5.56-5.55zm0 13.1a7.551 7.551 0 1 0-7.56-7.55 7.56 7.56 0 0 0 7.56 7.55z" clip-rule="evenodd"/>
  <path fill="#fff" d="M75.556 2.5V2v.5zm-.02 11.1l-.001.5v-.5zm-5.54-5.55h-.5.5zm5.56 7.55v.5-.5zM75.536.5V0v.5zm-7.54 7.55h-.5.5zM75.555 3a5.05 5.05 0 0 1 5.04 5.059l1 .002A6.05 6.05 0 0 0 75.558 2l-.002 1zm5.04 5.059a5.05 5.05 0 0 1-5.058 5.04l-.002 1a6.05 6.05 0 0 0 6.06-6.038l-1-.002zm-5.058 5.04a5.05 5.05 0 0 1-5.041-5.05h-1a6.05 6.05 0 0 0 6.039 6.05l.002-1zm-5.041-5.048A5.06 5.06 0 0 1 75.556 3V2a6.06 6.06 0 0 0-6.06 6.05h1zm5.06 8.049a8.049 8.049 0 0 0 8.04-8.06h-1a7.049 7.049 0 0 1-7.04 7.06v1zm8.04-8.06A8.051 8.051 0 0 0 75.536 0v1a7.05 7.05 0 0 1 7.06 7.04h1zM75.536 0a8.05 8.05 0 0 0-8.04 8.05h1A7.05 7.05 0 0 1 75.536 1V0zm-8.04 8.05a8.06 8.06 0 0 0 8.06 8.05v-1a7.06 7.06 0 0 1-7.06-7.05h-1z"/>
  <path fill="#fff" fill-rule="evenodd" d="M87.246 29.59a2.699 2.699 0 0 1-2.25 1.18h-18.88a2.67 2.67 0 0 1-2.24-1.18 2.697 2.697 0 0 1-.3-2.54c1.47-3.8 4.73-8.34 12-8.34s10.52 4.54 12 8.34a2.7 2.7 0 0 1-.33 2.54zm2.16-3.26c-1.69-4.38-5.46-9.62-13.85-9.62s-12.17 5.24-13.86 9.62a4.73 4.73 0 0 0 4.42 6.44h18.88a4.719 4.719 0 0 0 4.41-6.44z" clip-rule="evenodd"/>
  <path fill="#fff" d="M87.246 29.59l-.406-.292-.007.01.413.282zm-2.25 1.18l.004-.5h-.004v.5zm-18.88 0v-.5h-.004l.004.5zm-2.24-1.18l.415-.28-.006-.008-.409.288zm-.3-2.54l.465.183.001-.003-.466-.18zm24 0l.467-.178-.001-.004-.466.182zm1.83-.72l-.466.18v.002l.466-.182zm-27.71 0l.465.18-.466-.18zm2.7 6.12l.18-.466-.18.466zm1.72.32v-.5h-.002l.002.5zm18.88 0l.002-.5h-.002v.5zm4.734-4.705l-.5-.002.5.002zm-2.897 1.243A2.199 2.199 0 0 1 85 30.27l-.008 1a3.199 3.199 0 0 0 2.667-1.399l-.826-.563zm-1.837.962h-18.88v1h18.88v-1zm-18.884 0a2.17 2.17 0 0 1-1.821-.96l-.83.559a3.17 3.17 0 0 0 2.66 1.4l-.01-1zm-1.827-.968a2.197 2.197 0 0 1-.244-2.069l-.93-.367c-.394 1-.262 2.131.356 3.011l.818-.575zm-.243-2.072c.716-1.85 1.858-3.854 3.682-5.393 1.814-1.531 4.331-2.627 7.852-2.627v-1c-3.749 0-6.496 1.174-8.497 2.863-1.992 1.68-3.215 3.847-3.97 5.796l.933.361zm11.534-8.02c3.521 0 6.036 1.096 7.849 2.627 1.822 1.539 2.964 3.543 3.685 5.394l.932-.363c-.759-1.948-1.982-4.114-3.972-5.795-2-1.689-4.745-2.863-8.494-2.863v1zm11.533 8.018a2.2 2.2 0 0 1-.269 2.07l.812.584a3.2 3.2 0 0 0 .391-3.01l-.934.356zm2.764-1.078c-.865-2.24-2.27-4.726-4.557-6.655-2.296-1.936-5.451-3.285-9.76-3.285v1c4.08 0 7.006 1.27 9.115 3.05 2.118 1.786 3.443 4.11 4.269 6.25l.933-.36zm-14.317-9.94c-4.309 0-7.466 1.349-9.765 3.285-2.289 1.928-3.697 4.415-4.562 6.655l.933.36c.826-2.14 2.153-4.464 4.274-6.25 2.111-1.78 5.039-3.05 9.12-3.05v-1zM61.23 26.15a5.23 5.23 0 0 0 2.985 6.766l.362-.932a4.23 4.23 0 0 1-2.415-5.474l-.932-.36zm2.985 6.766a5.212 5.212 0 0 0 1.904.354l-.004-1a4.21 4.21 0 0 1-1.538-.286l-.362.932zm1.902.354h18.88v-1h-18.88v1zm18.879 0a5.219 5.219 0 0 0 5.235-5.204l-1-.002a4.219 4.219 0 0 1-4.232 4.206l-.003 1zm5.235-5.204a5.223 5.223 0 0 0-.358-1.918l-.932.364c.194.494.292 1.02.29 1.551l1 .004z"/>
  <path fill="#fff" fill-rule="evenodd" d="M56.756 18.96h-21.5l6-6a1 1 0 0 0 .006-1.414l-.006-.006a1 1 0 0 0-1.41 0l-7.73 7.72a1 1 0 0 0 .71 1.7h23.93a1 1 0 0 0 0-2z" clip-rule="evenodd"/>
  <path stroke="#fff" d="M56.756 18.96h-21.5l6-6a1 1 0 0 0 .006-1.414l-.006-.006a1 1 0 0 0-1.41 0l-7.73 7.72a1 1 0 0 0 .71 1.7h23.93a1 1 0 0 0 0-2z" clip-rule="evenodd"/>
  <path fill="#fff" fill-rule="evenodd" d="M56.756 24.46h-23.91a1 1 0 0 0 0 2h21.5l-6 6a1 1 0 0 0 1.414 1.416l.006-.006 7.69-7.69a1 1 0 0 0-.71-1.71l.01-.01z" clip-rule="evenodd"/>
  <path stroke="#fff" d="M56.756 24.46h-23.91a1 1 0 0 0 0 2h21.5l-6 6a1 1 0 0 0 1.414 1.416l.006-.006 7.69-7.69a1 1 0 0 0-.71-1.71l.01-.01z" clip-rule="evenodd"/>
</svg>
