<svg xmlns="http://www.w3.org/2000/svg" width="103" height="102" viewBox="0 0 103 102">
    <defs>
        <filter id="a" width="141.4%" height="125.8%" x="-20.7%" y="-12.9%" filterUnits="objectBoundingBox">
            <feOffset dy="10" in="SourceAlpha" result="shadowOffsetOuter1"/>
            <feGaussianBlur in="shadowOffsetOuter1" result="shadowBlurOuter1" stdDeviation="10"/>
            <feColorMatrix in="shadowBlurOuter1" result="shadowMatrixOuter1" values="0 0 0 0 0.0745098039 0 0 0 0 0.529411765 0 0 0 0 0.57254902 0 0 0 0.3 0"/>
            <feMerge>
                <feMergeNode in="shadowMatrixOuter1"/>
                <feMergeNode in="SourceGraphic"/>
            </feMerge>
        </filter>
    </defs>
    <g fill="none" fill-rule="evenodd" filter="url(#a)" transform="translate(-89 -41)">
        <path fill="#1DBD71" d="M174 82c0 3.344-5.372 5.799-6.353 8.818-1.014 3.127 1.852 8.262-.044 10.866-.938 1.287-2.802 1.67-4.77 1.95-2.052.29-4.218.468-5.56 1.446-2.55 1.855-3.259 7.518-6.227 8.7a1.75 1.75 0 0 1-.19.073c-3.02.982-7.01-3.329-10.356-3.329-3.345 0-7.335 4.31-10.355 3.331a1.793 1.793 0 0 1-.191-.072c-2.968-1.185-3.678-6.848-6.226-8.703-1.343-.978-3.51-1.156-5.561-1.446-1.968-.28-3.832-.663-4.77-1.95-1.896-2.604.97-7.739-.044-10.866C112.373 87.799 107 85.343 107 82s5.372-5.799 6.353-8.818c1.014-3.127-1.852-8.262.044-10.866 1.913-2.63 7.7-1.48 10.33-3.396 2.604-1.895 3.289-7.758 6.418-8.775 3.02-.98 7.01 3.331 10.355 3.331 3.345 0 7.335-4.31 10.355-3.331 3.13 1.017 3.814 6.88 6.417 8.775 2.63 1.915 8.417.767 10.33 3.396 1.896 2.604-.97 7.739.045 10.866.98 3.02 6.353 5.474 6.353 8.818z"/>
        <path fill="#FFF" d="M135.072 88.894l.645-.646 17.673-17.673a1.998 1.998 0 0 1 2.817.012c.787.786.783 2.045.004 2.824l-19.729 19.73a1.993 1.993 0 0 1-2.858-.037l-7.038-7.039a1.999 1.999 0 0 1 0-2.828 1.995 1.995 0 0 1 2.828 0l5.658 5.657z"/>
    </g>
</svg>
