<svg xmlns="http://www.w3.org/2000/svg" width="10" height="10" viewBox="0 0 10 10">
    <path fill="#FFF" fill-rule="evenodd" d="M9.253 9.478l-.077.067c-.296.226-.715.202-.983-.067l-.773-.773-2.41-2.41-3.157 3.158c-.264.264-.686.287-.98.063l-.076-.067c-.295-.295-.294-.767-.002-1.06L3.95 5.236.792 2.078c-.264-.264-.286-.686-.062-.98l.067-.076c.295-.295.767-.294 1.059-.002L5.01 4.174 8.194.99c.26-.261.687-.288.982-.065l.077.067.067.077c.226.295.202.715-.067.983L6.071 5.235 9.254 8.42c.262.26.289.687.066.982l-.067.077z"/>
</svg>
