<svg xmlns="http://www.w3.org/2000/svg" width="12" height="13" viewBox="0 0 12 13">
    <path fill="#FFF" fill-rule="evenodd" d="M11.67 11.97l-.087.079c-.394.312-.964.284-1.326-.078l-1.03-1.03-3.213-3.213-4.21 4.21c-.357.356-.929.382-1.321.072l-.087-.078c-.394-.393-.392-1.023-.002-1.413L4.6 6.313.39 2.104C.033 1.747.007 1.175.318.783L.396.696C.789.302 1.418.304 1.808.694l4.206 4.205L10.258.655c.364-.364.933-.387 1.325-.076l.088.078.078.088c.312.394.284.963-.078 1.326L7.428 6.314l4.244 4.244c.364.364.388.933.076 1.325l-.077.088z"/>
</svg>
