<svg xmlns="http://www.w3.org/2000/svg" width="200" height="43">
  <g fill="none" fill-rule="evenodd">
    <path fill="#19A9B7" d="M13.07 11.26c-5.78 0-9.96 4.38-9.96 10.22 0 5.78 4.27 10.03 9.96 10.03 5.51 0 9.74-4.56 9.74-10.08 0-5.52-4.23-10.17-9.74-10.17zm9.56 22.51v-4.34h-.09a11.1 11.1 0 0 1-9.47 4.93C5.78 34.36 0 28.8 0 21.34 0 13.93 5.91 8.41 13.07 8.41c3.82 0 7.38 1.63 9.47 4.97h.09V9.04h3.11v24.73h-3.11z"></path>
    <path fill="#fff" d="M44.01 11.26c-5.51 0-9.73 4.65-9.73 10.17S38.5 31.51 44 31.51c5.7 0 9.96-4.25 9.96-10.03 0-5.84-4.18-10.22-9.96-10.22m0 23.1c-3.78 0-7.33-1.76-9.47-4.93h-.09v13.03h-3.1V9.04h3.1v4.34h.1A11.3 11.3 0 0 1 44 8.41c7.16 0 13.07 5.52 13.07 12.93 0 7.46-5.78 13.02-13.07 13.02M73.4 11.26c-5.52 0-9.6 4.79-9.6 10.26 0 5.38 4.22 10 9.6 10 5.6 0 9.6-4.7 9.6-10.27 0-5.38-4.27-10-9.6-10m-.05 23.11c-6.85 0-12.67-5.83-12.67-12.8 0-7.14 5.6-13.15 12.67-13.15 6.94 0 12.76 5.92 12.76 12.98 0 7.1-5.78 12.97-12.76 12.97"></path>
    <path d="M0 42.46h199.7V.32H0z"></path>
    <path fill="#fff" d="M90.82 33.77h3.11V.32h-3.1zM100.6 33.77h3.11V9.04h-3.1zM117.23 11.89v21.89h-3.11V11.89H109V9.04h5.12V.31h3.11v8.73h5.82v2.85zM127.23 33.77h3.11V9.04h-3.1zM148.13 34.36a12.9 12.9 0 0 1-13.07-12.93c0-7.28 5.95-13.02 13.07-13.02 5.29 0 10.09 3.03 12.09 8.1h-3.42a9.59 9.59 0 0 0-8.58-5.25 9.98 9.98 0 0 0-10.05 10.08 9.97 9.97 0 0 0 10.05 10.17c3.6 0 6.89-1.71 8.58-5.01h3.42c-2.5 4.97-6.45 7.86-12.1 7.86M176.93 11.26c-5.78 0-9.96 4.38-9.96 10.22 0 5.78 4.27 10.03 9.96 10.03 5.52 0 9.74-4.56 9.74-10.08 0-5.52-4.22-10.17-9.74-10.17zm9.56 22.51v-4.34h-.09a11.1 11.1 0 0 1-9.47 4.93c-7.29 0-13.07-5.56-13.07-13.02 0-7.41 5.91-12.93 13.07-12.93 3.83 0 7.38 1.63 9.47 4.97h.1V9.04h3.1v24.73h-3.1zM196.58 33.77h3.11V.32h-3.1zM103.94 2.12c0 1-.8 1.81-1.78 1.81a1.8 1.8 0 0 1-1.78-1.8c0-1 .8-1.81 1.78-1.81s1.78.8 1.78 1.8M130.57 2.12c0 1-.8 1.81-1.78 1.81a1.8 1.8 0 0 1-1.78-1.8c0-1 .8-1.81 1.78-1.81s1.78.8 1.78 1.8">
    </path>
  </g>
</svg>
