<svg xmlns="http://www.w3.org/2000/svg" width="612" height="792" viewBox="0 0 612 792"><path fill="#19A9B7" d="M538.732 686.915V583.479c-51.719 77.578-133.605 116.366-224.112 116.366-172.395 0-310.31-129.296-310.31-306 0-172.395 142.225-301.69 310.31-301.69 90.507 0 176.704 38.789 224.112 116.366V105.084H612v577.521h-73.268v4.31zM310.31 156.803c-137.915 0-237.042 103.437-237.042 241.353 0 133.605 103.437 232.732 237.042 232.732 129.296 0 232.732-107.747 232.732-237.042 0-129.297-103.437-237.043-232.732-237.043"/></svg>